<svg xmlns="http://www.w3.org/2000/svg" viewBox="0 0 600 450">
  <defs>
    <linearGradient id="bg3" x1="0%" y1="0%" x2="100%" y2="100%">
      <stop offset="0%" style="stop-color:#1a140a"/>
      <stop offset="100%" style="stop-color:#2d1f0a"/>
    </linearGradient>
    <linearGradient id="accent3" x1="0%" y1="0%" x2="0%" y2="100%">
      <stop offset="0%" style="stop-color:#f59e0b"/>
      <stop offset="100%" style="stop-color:#d97706"/>
    </linearGradient>
  </defs>
  <rect width="600" height="450" fill="url(#bg3)"/>
  <g opacity="0.04">
    <circle cx="300" cy="225" r="180" fill="#f59e0b"/>
    <circle cx="150" cy="150" r="80" fill="#d97706"/>
    <circle cx="480" cy="320" r="100" fill="#fbbf24"/>
  </g>
  <g transform="translate(300,150)">
    <circle cx="0" cy="-50" r="18" fill="none" stroke="url(#accent3)" stroke-width="2.5" opacity="0.9"/>
    <circle cx="0" cy="-50" r="8" fill="#f59e0b" opacity="0.3"/>
    <text x="0" y="-46" text-anchor="middle" font-family="monospace" font-size="7" fill="#fbbf24" opacity="0.8">SM</text>
    <circle cx="-45" cy="20" r="14" fill="none" stroke="#d97706" stroke-width="2" opacity="0.75"/>
    <circle cx="-45" cy="20" r="6" fill="#d97706" opacity="0.25"/>
    <text x="-45" y="24" text-anchor="middle" font-family="monospace" font-size="7" fill="#f59e0b" opacity="0.7">QA</text>
    <circle cx="45" cy="20" r="14" fill="none" stroke="#d97706" stroke-width="2" opacity="0.75"/>
    <circle cx="45" cy="20" r="6" fill="#d97706" opacity="0.25"/>
    <text x="45" y="24" text-anchor="middle" font-family="monospace" font-size="7" fill="#f59e0b" opacity="0.7">EXEC</text>
    <circle cx="-25" cy="-20" r="10" fill="none" stroke="#b45309" stroke-width="1.5" opacity="0.6"/>
    <circle cx="-25" cy="-20" r="4" fill="#b45309" opacity="0.2"/>
    <circle cx="25" cy="-20" r="10" fill="none" stroke="#b45309" stroke-width="1.5" opacity="0.6"/>
    <circle cx="25" cy="-20" r="4" fill="#b45309" opacity="0.2"/>
    <line x1="0" y1="-34" x2="-33" y2="8" stroke="#f59e0b" stroke-width="1.2" opacity="0.3" stroke-dasharray="4,3"/>
    <line x1="0" y1="-34" x2="33" y2="8" stroke="#f59e0b" stroke-width="1.2" opacity="0.3" stroke-dasharray="4,3"/>
    <line x1="-33" y1="8" x2="33" y2="8" stroke="#d97706" stroke-width="1" opacity="0.2" stroke-dasharray="3,4"/>
    <line x1="0" y1="-34" x2="-18" y2="-15" stroke="#b45309" stroke-width="1" opacity="0.2" stroke-dasharray="2,3"/>
    <line x1="0" y1="-34" x2="18" y2="-15" stroke="#b45309" stroke-width="1" opacity="0.2" stroke-dasharray="2,3"/>
    <circle cx="0" cy="-58" r="3" fill="#fbbf24" opacity="0.5"/>
  </g>
  <text x="300" y="280" text-anchor="middle" font-family="Georgia,serif" font-size="22" font-weight="700" fill="#d1d5db" letter-spacing="0.02em">Multi‑Agent System</text>
  <text x="300" y="312" text-anchor="middle" font-family="monospace" font-size="11" fill="#fcd34d" letter-spacing="0.08em">DEEPSEEK V4 · KIMI K2.6 · AWS EC2 · TAILSCALE</text>
  <g transform="translate(300,362)">
    <rect x="-140" y="-14" width="280" height="28" rx="14" fill="none" stroke="#f59e0b" stroke-width="1.5" opacity="0.25"/>
    <rect x="-135" y="-9" width="270" height="18" rx="9" fill="#d97706" opacity="0.08"/>
    <text x="0" y="4" text-anchor="middle" font-family="monospace" font-size="10" fill="#fbbf24" letter-spacing="0.06em">AI AGENT ORCHESTRATION WITH TASK BUS &amp; ESCALATION</text>
  </g>
</svg>